<?xml version="1.0" encoding="UTF-8"?> <svg xmlns="http://www.w3.org/2000/svg" xmlns:xlink="http://www.w3.org/1999/xlink" width="500" zoomAndPan="magnify" viewBox="0 0 375 374.999991" height="500" preserveAspectRatio="xMidYMid meet" version="1.0"><defs><g></g><clipPath id="aac0f300ee"><path d="M 29 23 L 364 23 L 364 356 L 29 356 Z M 29 23 " clip-rule="nonzero"></path></clipPath><clipPath id="864d2df69a"><path d="M 37.5 23.785156 L 363.742188 31.34375 L 356.230469 355.722656 L 29.984375 348.167969 Z M 37.5 23.785156 " clip-rule="nonzero"></path></clipPath><clipPath id="e502984fe3"><path d="M 0.761719 0.761719 L 334.839844 0.761719 L 334.839844 332.921875 L 0.761719 332.921875 Z M 0.761719 0.761719 " clip-rule="nonzero"></path></clipPath><clipPath id="46b631eb19"><path d="M 8.5 0.785156 L 334.742188 8.34375 L 327.230469 332.722656 L 0.984375 325.167969 Z M 8.5 0.785156 " clip-rule="nonzero"></path></clipPath><clipPath id="07a11bec97"><rect x="0" width="335" y="0" height="333"></rect></clipPath><clipPath id="dffbf12160"><path d="M 20.421875 19.675781 L 346.753906 19.675781 L 346.753906 344.144531 L 20.421875 344.144531 Z M 20.421875 19.675781 " clip-rule="nonzero"></path></clipPath><clipPath id="711d63304e"><path d="M 0.421875 0.675781 L 326.753906 0.675781 L 326.753906 325.144531 L 0.421875 325.144531 Z M 0.421875 0.675781 " clip-rule="nonzero"></path></clipPath><clipPath id="e12f3492af"><rect x="0" width="327" y="0" height="326"></rect></clipPath><clipPath id="a2b8ea2ffe"><path d="M 20.421875 19.679688 L 346.671875 19.679688 L 346.671875 344.132812 L 20.421875 344.132812 Z M 20.421875 19.679688 " clip-rule="nonzero"></path></clipPath><clipPath id="d03e16a9c8"><path d="M 38 284.644531 L 329 284.644531 L 329 320.644531 L 38 320.644531 Z M 38 284.644531 " clip-rule="nonzero"></path></clipPath><clipPath id="957898dd43"><rect x="0" width="61" y="0" height="27"></rect></clipPath><clipPath id="02e80de12c"><rect x="0" width="43" y="0" height="28"></rect></clipPath><clipPath id="2b6cf0e3e2"><path d="M 38 6 L 47.640625 6 L 47.640625 22 L 38 22 Z M 38 6 " clip-rule="nonzero"></path></clipPath><clipPath id="7792fe291d"><rect x="0" width="48" y="0" height="28"></rect></clipPath><clipPath id="9f070ec2e5"><rect x="0" width="77" y="0" height="28"></rect></clipPath></defs><g clip-path="url(#aac0f300ee)"><g clip-path="url(#864d2df69a)"><g transform="matrix(1, 0, 0, 1, 29, 23)"><g clip-path="url(#07a11bec97)"><g clip-path="url(#e502984fe3)"><g clip-path="url(#46b631eb19)"><path fill="#f4d608" d="M 8.5 0.785156 L 334.148438 8.328125 L 326.632812 332.710938 L 0.984375 325.167969 Z M 8.5 0.785156 " fill-opacity="1" fill-rule="nonzero"></path></g></g></g></g></g></g><g clip-path="url(#dffbf12160)"><g transform="matrix(1, 0, 0, 1, 20, 19)"><g clip-path="url(#e12f3492af)"><g clip-path="url(#711d63304e)"><path fill="#000000" d="M 0.421875 0.675781 L 326.15625 0.675781 L 326.15625 325.144531 L 0.421875 325.144531 Z M 0.421875 0.675781 " fill-opacity="1" fill-rule="nonzero"></path></g></g></g></g><g clip-path="url(#a2b8ea2ffe)"><path stroke-linecap="butt" transform="matrix(0.75, 0, 0, 0.75, 20.422197, 19.677966)" fill="none" stroke-linejoin="miter" d="M -0.000429865 0.00229514 L 435.093349 0.00229514 L 435.093349 432.60649 L -0.000429865 432.60649 Z M -0.000429865 0.00229514 " stroke="#f4d608" stroke-width="6" stroke-opacity="1" stroke-miterlimit="4"></path></g><path stroke-linecap="butt" transform="matrix(0.75, 0.000000000000000027, -0.000000000000000027, 0.75, 36.129286, 82.210043)" fill="none" stroke-linejoin="miter" d="M -0.000505757 1.001192 L 391.379728 1.001192 " stroke="#ffffff" stroke-width="2" stroke-opacity="1" stroke-miterlimit="4"></path><path stroke-linecap="butt" transform="matrix(0.75, 0.000000000000000054, -0.000000000000000054, 0.75, 36.821446, 127.742087)" fill="none" stroke-linejoin="miter" d="M -0.00151166 1.000134 L 391.378722 1.000134 " stroke="#ffffff" stroke-width="2" stroke-opacity="1" stroke-miterlimit="4"></path><path stroke-linecap="butt" transform="matrix(0.75, 0.000000000000000054, -0.000000000000000054, 0.75, 37.513599, 173.27413)" fill="none" stroke-linejoin="miter" d="M -0.00250764 0.999076 L 391.377726 0.999076 " stroke="#ffffff" stroke-width="2" stroke-opacity="1" stroke-miterlimit="4"></path><path stroke-linecap="butt" transform="matrix(0.75, 0.000000000000000109, -0.000000000000000109, 0.75, 38.20576, 218.806171)" fill="none" stroke-linejoin="miter" d="M 0.0016948 0.998022 L 391.37672 0.998022 " stroke="#ffffff" stroke-width="2" stroke-opacity="1" stroke-miterlimit="4"></path><path stroke-linecap="butt" transform="matrix(0.75, 0.000000000000000109, -0.000000000000000109, 0.75, 38.897913, 264.338215)" fill="none" stroke-linejoin="miter" d="M 0.000698819 1.002172 L 391.375725 1.002172 " stroke="#ffffff" stroke-width="2" stroke-opacity="1" stroke-miterlimit="4"></path><g clip-path="url(#d03e16a9c8)"><path fill="#ffffff" d="M 327.804688 320.644531 L 328.949219 320.644531 L 328.949219 284.691406 L 327.804688 284.691406 Z M 323.25 320.644531 L 326.671875 320.644531 L 326.671875 284.691406 L 323.25 284.691406 Z M 318.6875 320.644531 L 322.109375 320.644531 L 322.109375 284.691406 L 318.6875 284.691406 Z M 316.410156 320.644531 L 317.542969 320.644531 L 317.542969 284.691406 L 316.410156 284.691406 Z M 311.855469 320.644531 L 312.988281 320.644531 L 312.988281 284.691406 L 311.855469 284.691406 Z M 309.566406 320.644531 L 310.710938 320.644531 L 310.710938 284.691406 L 309.566406 284.691406 Z M 307.289062 320.644531 L 308.425781 320.644531 L 308.425781 284.691406 L 307.289062 284.691406 Z M 300.449219 320.644531 L 303.871094 320.644531 L 303.871094 284.691406 L 300.449219 284.691406 Z M 298.164062 320.644531 L 299.304688 320.644531 L 299.304688 284.691406 L 298.164062 284.691406 Z M 293.609375 320.644531 L 297.027344 320.644531 L 297.027344 284.691406 L 293.609375 284.691406 Z M 289.042969 320.644531 L 292.464844 320.644531 L 292.464844 284.691406 L 289.042969 284.691406 Z M 286.765625 320.644531 L 287.910156 320.644531 L 287.910156 284.691406 L 286.765625 284.691406 Z M 279.925781 320.644531 L 283.34375 320.644531 L 283.34375 284.691406 L 279.925781 284.691406 Z M 277.648438 320.644531 L 278.78125 320.644531 L 278.78125 284.691406 L 277.648438 284.691406 Z M 275.371094 320.644531 L 276.503906 320.644531 L 276.503906 284.691406 L 275.371094 284.691406 Z M 270.804688 320.644531 L 274.226562 320.644531 L 274.226562 284.691406 L 270.804688 284.691406 Z M 266.242188 320.644531 L 269.660156 320.644531 L 269.660156 284.691406 L 266.242188 284.691406 Z M 263.964844 320.644531 L 265.105469 320.644531 L 265.105469 284.691406 L 263.964844 284.691406 Z M 261.6875 320.644531 L 262.828125 320.644531 L 262.828125 284.691406 L 261.6875 284.691406 Z M 257.121094 320.644531 L 258.265625 320.644531 L 258.265625 284.691406 L 257.121094 284.691406 Z M 254.84375 320.644531 L 255.988281 320.644531 L 255.988281 284.691406 L 254.84375 284.691406 Z M 252.566406 320.644531 L 253.710938 320.644531 L 253.710938 284.691406 L 252.566406 284.691406 Z M 248.003906 320.644531 L 251.421875 320.644531 L 251.421875 284.691406 L 248.003906 284.691406 Z M 243.449219 320.644531 L 244.582031 320.644531 L 244.582031 284.691406 L 243.449219 284.691406 Z M 238.882812 320.644531 L 242.304688 320.644531 L 242.304688 284.691406 L 238.882812 284.691406 Z M 236.605469 320.644531 L 237.738281 320.644531 L 237.738281 284.691406 L 236.605469 284.691406 Z M 234.320312 320.644531 L 235.460938 320.644531 L 235.460938 284.691406 L 234.320312 284.691406 Z M 232.042969 320.644531 L 233.183594 320.644531 L 233.183594 284.691406 L 232.042969 284.691406 Z M 225.199219 320.644531 L 228.621094 320.644531 L 228.621094 284.691406 L 225.199219 284.691406 Z M 220.636719 320.644531 L 224.066406 320.644531 L 224.066406 284.691406 L 220.636719 284.691406 Z M 216.082031 320.644531 L 219.5 320.644531 L 219.5 284.691406 L 216.082031 284.691406 Z M 213.804688 320.644531 L 214.945312 320.644531 L 214.945312 284.691406 L 213.804688 284.691406 Z M 211.515625 320.644531 L 212.660156 320.644531 L 212.660156 284.691406 L 211.515625 284.691406 Z M 204.683594 320.644531 L 208.09375 320.644531 L 208.09375 284.691406 L 204.683594 284.691406 Z M 202.398438 320.644531 L 203.539062 320.644531 L 203.539062 284.691406 L 202.398438 284.691406 Z M 197.84375 320.644531 L 201.253906 320.644531 L 201.253906 284.691406 L 197.84375 284.691406 Z M 195.554688 320.644531 L 196.699219 320.644531 L 196.699219 284.691406 L 195.554688 284.691406 Z M 191 320.644531 L 194.421875 320.644531 L 194.421875 284.691406 L 191 284.691406 Z M 186.4375 320.644531 L 187.578125 320.644531 L 187.578125 284.691406 L 186.4375 284.691406 Z M 184.160156 320.644531 L 185.300781 320.644531 L 185.300781 284.691406 L 184.160156 284.691406 Z M 181.871094 320.644531 L 183.015625 320.644531 L 183.015625 284.691406 L 181.871094 284.691406 Z M 179.59375 320.644531 L 180.738281 320.644531 L 180.738281 284.691406 L 179.59375 284.691406 Z M 177.316406 320.644531 L 178.460938 320.644531 L 178.460938 284.691406 L 177.316406 284.691406 Z M 170.476562 320.644531 L 173.894531 320.644531 L 173.894531 284.691406 L 170.476562 284.691406 Z M 165.921875 320.644531 L 169.332031 320.644531 L 169.332031 284.691406 L 165.921875 284.691406 Z M 161.355469 320.644531 L 164.777344 320.644531 L 164.777344 284.691406 L 161.355469 284.691406 Z M 159.078125 320.644531 L 160.210938 320.644531 L 160.210938 284.691406 L 159.078125 284.691406 Z M 156.792969 320.644531 L 157.933594 320.644531 L 157.933594 284.691406 L 156.792969 284.691406 Z M 149.949219 320.644531 L 153.371094 320.644531 L 153.371094 284.691406 L 149.949219 284.691406 Z M 147.671875 320.644531 L 148.816406 320.644531 L 148.816406 284.691406 L 147.671875 284.691406 Z M 145.394531 320.644531 L 146.539062 320.644531 L 146.539062 284.691406 L 145.394531 284.691406 Z M 143.109375 320.644531 L 144.25 320.644531 L 144.25 284.691406 L 143.109375 284.691406 Z M 140.832031 320.644531 L 141.972656 320.644531 L 141.972656 284.691406 L 140.832031 284.691406 Z M 133.988281 320.644531 L 137.410156 320.644531 L 137.410156 284.691406 L 133.988281 284.691406 Z M 129.433594 320.644531 L 132.855469 320.644531 L 132.855469 284.691406 L 129.433594 284.691406 Z M 124.871094 320.644531 L 128.289062 320.644531 L 128.289062 284.691406 L 124.871094 284.691406 Z M 122.59375 320.644531 L 123.726562 320.644531 L 123.726562 284.691406 L 122.59375 284.691406 Z M 120.316406 320.644531 L 121.449219 320.644531 L 121.449219 284.691406 L 120.316406 284.691406 Z M 115.75 320.644531 L 116.894531 320.644531 L 116.894531 284.691406 L 115.75 284.691406 Z M 111.1875 320.644531 L 114.605469 320.644531 L 114.605469 284.691406 L 111.1875 284.691406 Z M 106.632812 320.644531 L 110.050781 320.644531 L 110.050781 284.691406 L 106.632812 284.691406 Z M 104.34375 320.644531 L 105.488281 320.644531 L 105.488281 284.691406 L 104.34375 284.691406 Z M 97.511719 320.644531 L 100.933594 320.644531 L 100.933594 284.691406 L 97.511719 284.691406 Z M 95.226562 320.644531 L 96.371094 320.644531 L 96.371094 284.691406 L 95.226562 284.691406 Z M 92.949219 320.644531 L 94.09375 320.644531 L 94.09375 284.691406 L 92.949219 284.691406 Z M 88.394531 320.644531 L 91.804688 320.644531 L 91.804688 284.691406 L 88.394531 284.691406 Z M 83.828125 320.644531 L 87.25 320.644531 L 87.25 284.691406 L 83.828125 284.691406 Z M 81.550781 320.644531 L 82.6875 320.644531 L 82.6875 284.691406 L 81.550781 284.691406 Z M 79.265625 320.644531 L 80.410156 320.644531 L 80.410156 284.691406 L 79.265625 284.691406 Z M 74.710938 320.644531 L 75.84375 320.644531 L 75.84375 284.691406 L 74.710938 284.691406 Z M 70.144531 320.644531 L 73.566406 320.644531 L 73.566406 284.691406 L 70.144531 284.691406 Z M 67.867188 320.644531 L 69.011719 320.644531 L 69.011719 284.691406 L 67.867188 284.691406 Z M 63.304688 320.644531 L 64.449219 320.644531 L 64.449219 284.691406 L 63.304688 284.691406 Z M 61.027344 320.644531 L 62.171875 320.644531 L 62.171875 284.691406 L 61.027344 284.691406 Z M 56.460938 320.644531 L 59.882812 320.644531 L 59.882812 284.691406 L 56.460938 284.691406 Z M 54.183594 320.644531 L 55.328125 320.644531 L 55.328125 284.691406 L 54.183594 284.691406 Z M 49.628906 320.644531 L 53.042969 320.644531 L 53.042969 284.691406 L 49.628906 284.691406 Z M 45.066406 320.644531 L 48.488281 320.644531 L 48.488281 284.691406 L 45.066406 284.691406 Z M 42.789062 320.644531 L 43.921875 320.644531 L 43.921875 284.691406 L 42.789062 284.691406 Z M 38.222656 284.691406 L 39.367188 284.691406 L 39.367188 320.644531 L 38.222656 320.644531 L 38.222656 284.691406 " fill-opacity="1" fill-rule="nonzero"></path></g><g fill="#f4d608" fill-opacity="1"><g transform="translate(80.158128, 69.710044)"><g><path d="M 5.6875 0 L 5.6875 -11.3125 L 0.203125 -34.359375 L 7 -34.359375 L 8.921875 -22.71875 L 10.84375 -34.359375 L 17.640625 -34.359375 L 12.15625 -11.3125 L 12.15625 0 Z M 5.6875 0 "></path></g></g></g><g fill="#f4d608" fill-opacity="1"><g transform="translate(97.996353, 69.710044)"><g><path d="M 9.71875 0.3125 C 6.945312 0.3125 4.835938 -0.53125 3.390625 -2.21875 C 1.953125 -3.914062 1.234375 -6.296875 1.234375 -9.359375 L 1.234375 -25.71875 C 1.234375 -28.675781 1.953125 -30.910156 3.390625 -32.421875 C 4.835938 -33.929688 6.945312 -34.6875 9.71875 -34.6875 C 12.488281 -34.6875 14.59375 -33.929688 16.03125 -32.421875 C 17.476562 -30.910156 18.203125 -28.675781 18.203125 -25.71875 L 18.203125 -9.359375 C 18.203125 -6.265625 17.476562 -3.878906 16.03125 -2.203125 C 14.59375 -0.523438 12.488281 0.3125 9.71875 0.3125 Z M 9.71875 -6 C 10.332031 -6 10.742188 -6.265625 10.953125 -6.796875 C 11.171875 -7.328125 11.28125 -8.078125 11.28125 -9.046875 L 11.28125 -25.84375 C 11.28125 -26.582031 11.179688 -27.1875 10.984375 -27.65625 C 10.785156 -28.125 10.378906 -28.359375 9.765625 -28.359375 C 8.617188 -28.359375 8.046875 -27.492188 8.046875 -25.765625 L 8.046875 -9 C 8.046875 -8.007812 8.164062 -7.257812 8.40625 -6.75 C 8.644531 -6.25 9.082031 -6 9.71875 -6 Z M 9.71875 -6 "></path></g></g></g><g fill="#f4d608" fill-opacity="1"><g transform="translate(117.434416, 69.710044)"><g><path d="M 1.515625 0 L 1.515625 -34.359375 L 8.59375 -34.359375 L 11.765625 -17.921875 L 11.765625 -34.359375 L 18.40625 -34.359375 L 18.40625 0 L 11.6875 0 L 8.234375 -17.203125 L 8.234375 0 Z M 1.515625 0 "></path></g></g></g><g fill="#f4d608" fill-opacity="1"><g transform="translate(137.352433, 69.710044)"><g><path d="M 1.515625 0 L 1.515625 -34.359375 L 8.3125 -34.359375 L 8.3125 -20.59375 L 11.515625 -34.359375 L 18.4375 -34.359375 L 14.59375 -18.640625 L 19.234375 0 L 12.125 0 L 8.359375 -16.640625 L 8.359375 0 Z M 1.515625 0 "></path></g></g></g><g fill="#f4d608" fill-opacity="1"><g transform="translate(156.23056, 69.710044)"><g><path d="M 1.515625 0 L 1.515625 -34.359375 L 15.28125 -34.359375 L 15.28125 -27.71875 L 8.515625 -27.71875 L 8.515625 -21.046875 L 15 -21.046875 L 15 -14.5625 L 8.515625 -14.5625 L 8.515625 -6.6875 L 15.71875 -6.6875 L 15.71875 0 Z M 1.515625 0 "></path></g></g></g><g fill="#f4d608" fill-opacity="1"><g transform="translate(172.708918, 69.710044)"><g><path d="M 1.515625 0 L 1.515625 -34.359375 L 8.59375 -34.359375 L 11.765625 -17.921875 L 11.765625 -34.359375 L 18.40625 -34.359375 L 18.40625 0 L 11.6875 0 L 8.234375 -17.203125 L 8.234375 0 Z M 1.515625 0 "></path></g></g></g><g fill="#f4d608" fill-opacity="1"><g transform="translate(192.626936, 69.710044)"><g><path d="M 9.71875 0.3125 C 6.945312 0.3125 4.835938 -0.53125 3.390625 -2.21875 C 1.953125 -3.914062 1.234375 -6.296875 1.234375 -9.359375 L 1.234375 -25.71875 C 1.234375 -28.675781 1.953125 -30.910156 3.390625 -32.421875 C 4.835938 -33.929688 6.945312 -34.6875 9.71875 -34.6875 C 12.488281 -34.6875 14.59375 -33.929688 16.03125 -32.421875 C 17.476562 -30.910156 18.203125 -28.675781 18.203125 -25.71875 L 18.203125 -9.359375 C 18.203125 -6.265625 17.476562 -3.878906 16.03125 -2.203125 C 14.59375 -0.523438 12.488281 0.3125 9.71875 0.3125 Z M 9.71875 -6 C 10.332031 -6 10.742188 -6.265625 10.953125 -6.796875 C 11.171875 -7.328125 11.28125 -8.078125 11.28125 -9.046875 L 11.28125 -25.84375 C 11.28125 -26.582031 11.179688 -27.1875 10.984375 -27.65625 C 10.785156 -28.125 10.378906 -28.359375 9.765625 -28.359375 C 8.617188 -28.359375 8.046875 -27.492188 8.046875 -25.765625 L 8.046875 -9 C 8.046875 -8.007812 8.164062 -7.257812 8.40625 -6.75 C 8.644531 -6.25 9.082031 -6 9.71875 -6 Z M 9.71875 -6 "></path></g></g></g><g fill="#f4d608" fill-opacity="1"><g transform="translate(212.064999, 69.710044)"><g><path d="M 1.515625 0 L 1.515625 -34.359375 L 12 -34.359375 L 14.875 -13.40625 L 17.765625 -34.359375 L 28.3125 -34.359375 L 28.3125 0 L 22.046875 0 L 22.046875 -24.765625 L 18.078125 0 L 11.921875 0 L 7.71875 -24.765625 L 7.71875 0 Z M 1.515625 0 "></path></g></g></g><g fill="#f4d608" fill-opacity="1"><g transform="translate(241.902033, 69.710044)"><g><path d="M 1.203125 0 L 1.203125 -34.359375 L 7.84375 -34.359375 L 7.84375 0 Z M 1.203125 0 "></path></g></g></g><g fill="#f4d608" fill-opacity="1"><g transform="translate(250.981134, 69.710044)"><g><path d="M 9.515625 0.3125 C 7.015625 0.3125 5.007812 -0.472656 3.5 -2.046875 C 1.988281 -3.617188 1.234375 -5.773438 1.234375 -8.515625 L 1.234375 -24.359375 C 1.234375 -27.773438 1.910156 -30.347656 3.265625 -32.078125 C 4.628906 -33.816406 6.769531 -34.6875 9.6875 -34.6875 C 12.21875 -34.6875 14.253906 -33.988281 15.796875 -32.59375 C 17.347656 -31.207031 18.125 -29.207031 18.125 -26.59375 L 18.125 -20.6875 L 11.28125 -20.6875 L 11.28125 -25.765625 C 11.28125 -26.742188 11.160156 -27.421875 10.921875 -27.796875 C 10.679688 -28.171875 10.269531 -28.359375 9.6875 -28.359375 C 9.070312 -28.359375 8.648438 -28.144531 8.421875 -27.71875 C 8.191406 -27.289062 8.078125 -26.664062 8.078125 -25.84375 L 8.078125 -8.59375 C 8.078125 -7.6875 8.207031 -7.023438 8.46875 -6.609375 C 8.738281 -6.203125 9.144531 -6 9.6875 -6 C 10.75 -6 11.28125 -6.863281 11.28125 -8.59375 L 11.28125 -14.796875 L 18.203125 -14.796875 L 18.203125 -8.3125 C 18.203125 -2.5625 15.304688 0.3125 9.515625 0.3125 Z M 9.515625 0.3125 "></path></g></g></g><g fill="#f4d608" fill-opacity="1"><g transform="translate(269.939255, 69.710044)"><g><path d="M 9.6875 0.3125 C 6.5625 0.3125 4.304688 -0.457031 2.921875 -2 C 1.535156 -3.539062 0.84375 -6.035156 0.84375 -9.484375 L 0.84375 -12.84375 L 7.59375 -12.84375 L 7.59375 -8.5625 C 7.59375 -6.851562 8.140625 -6 9.234375 -6 C 9.847656 -6 10.273438 -6.175781 10.515625 -6.53125 C 10.753906 -6.894531 10.875 -7.503906 10.875 -8.359375 C 10.875 -9.484375 10.738281 -10.410156 10.46875 -11.140625 C 10.207031 -11.867188 9.867188 -12.476562 9.453125 -12.96875 C 9.046875 -13.46875 8.304688 -14.238281 7.234375 -15.28125 L 4.28125 -18.234375 C 1.988281 -20.472656 0.84375 -22.957031 0.84375 -25.6875 C 0.84375 -28.613281 1.515625 -30.84375 2.859375 -32.375 C 4.203125 -33.914062 6.171875 -34.6875 8.765625 -34.6875 C 11.859375 -34.6875 14.082031 -33.863281 15.4375 -32.21875 C 16.800781 -30.582031 17.484375 -28.015625 17.484375 -24.515625 L 10.484375 -24.515625 L 10.4375 -26.875 C 10.4375 -27.332031 10.3125 -27.691406 10.0625 -27.953125 C 9.8125 -28.222656 9.457031 -28.359375 9 -28.359375 C 8.46875 -28.359375 8.066406 -28.210938 7.796875 -27.921875 C 7.535156 -27.628906 7.40625 -27.226562 7.40625 -26.71875 C 7.40625 -25.601562 8.039062 -24.441406 9.3125 -23.234375 L 13.3125 -19.40625 C 14.25 -18.5 15.023438 -17.632812 15.640625 -16.8125 C 16.253906 -16 16.75 -15.039062 17.125 -13.9375 C 17.5 -12.832031 17.6875 -11.519531 17.6875 -10 C 17.6875 -6.613281 17.0625 -4.046875 15.8125 -2.296875 C 14.570312 -0.554688 12.53125 0.3125 9.6875 0.3125 Z M 9.6875 0.3125 "></path></g></g></g><g transform="matrix(1, 0, 0, 1, 271, 99)"><g clip-path="url(#957898dd43)"><g fill="#f4d608" fill-opacity="1"><g transform="translate(1.242687, 20.658712)"><g><path d="M 2.109375 -11.859375 C 1.910156 -11.609375 1.628906 -11.40625 1.265625 -11.25 C 0.898438 -11.09375 0.550781 -11.015625 0.21875 -11.015625 L 0.21875 -13.484375 C 0.738281 -13.566406 1.257812 -13.773438 1.78125 -14.109375 C 2.300781 -14.441406 2.675781 -14.875 2.90625 -15.40625 L 5.375 -15.40625 L 5.375 0 L 2.109375 0 Z M 2.109375 -11.859375 "></path></g></g></g><g fill="#f4d608" fill-opacity="1"><g transform="translate(7.174015, 20.658712)"><g></g></g></g><g fill="#f4d608" fill-opacity="1"><g transform="translate(11.367159, 20.658712)"><g><path d="M 0.6875 -15.390625 L 4.859375 -15.390625 C 5.984375 -15.390625 6.796875 -15.113281 7.296875 -14.5625 C 7.804688 -14.019531 8.0625 -13.125 8.0625 -11.875 L 8.0625 -11.203125 C 8.0625 -9.734375 7.535156 -8.851562 6.484375 -8.5625 C 7.128906 -8.394531 7.582031 -8.003906 7.84375 -7.390625 C 8.113281 -6.785156 8.25 -5.984375 8.25 -4.984375 C 8.25 -3.347656 8.003906 -2.109375 7.515625 -1.265625 C 7.023438 -0.421875 6.140625 0 4.859375 0 L 0.6875 0 Z M 4.3125 -9.609375 C 4.582031 -9.609375 4.765625 -9.707031 4.859375 -9.90625 C 4.953125 -10.101562 5 -10.378906 5 -10.734375 L 5 -12.28125 C 5 -12.78125 4.78125 -13.03125 4.34375 -13.03125 L 3.6875 -13.03125 L 3.6875 -9.609375 Z M 4 -2.703125 C 4.800781 -2.703125 5.203125 -3.085938 5.203125 -3.859375 L 5.203125 -5.765625 C 5.203125 -6.234375 5.128906 -6.585938 4.984375 -6.828125 C 4.847656 -7.066406 4.609375 -7.1875 4.265625 -7.1875 L 3.6875 -7.1875 L 3.6875 -2.71875 Z M 4 -2.703125 "></path></g></g></g><g fill="#f4d608" fill-opacity="1"><g transform="translate(19.95056, 20.658712)"><g><path d="M 0.53125 0 L 0.53125 -15.390625 L 3.515625 -15.390625 L 3.515625 0 Z M 0.53125 0 "></path></g></g></g><g fill="#f4d608" fill-opacity="1"><g transform="translate(24.01827, 20.658712)"><g><path d="M 0.6875 0 L 0.6875 -15.390625 L 3.765625 -15.390625 L 3.765625 -2.609375 L 6.9375 -2.609375 L 6.9375 0 Z M 0.6875 0 "></path></g></g></g><g fill="#f4d608" fill-opacity="1"><g transform="translate(31.132281, 20.658712)"><g><path d="M 0.6875 0 L 0.6875 -15.390625 L 3.765625 -15.390625 L 3.765625 -2.609375 L 6.9375 -2.609375 L 6.9375 0 Z M 0.6875 0 "></path></g></g></g><g fill="#f4d608" fill-opacity="1"><g transform="translate(38.246291, 20.658712)"><g><path d="M 0.53125 0 L 0.53125 -15.390625 L 3.515625 -15.390625 L 3.515625 0 Z M 0.53125 0 "></path></g></g></g><g fill="#f4d608" fill-opacity="1"><g transform="translate(42.314001, 20.658712)"><g><path d="M 4.359375 0.140625 C 3.109375 0.140625 2.160156 -0.234375 1.515625 -0.984375 C 0.878906 -1.742188 0.5625 -2.8125 0.5625 -4.1875 L 0.5625 -11.53125 C 0.5625 -12.851562 0.878906 -13.847656 1.515625 -14.515625 C 2.160156 -15.191406 3.109375 -15.53125 4.359375 -15.53125 C 5.597656 -15.53125 6.539062 -15.191406 7.1875 -14.515625 C 7.832031 -13.847656 8.15625 -12.851562 8.15625 -11.53125 L 8.15625 -4.1875 C 8.15625 -2.800781 7.832031 -1.734375 7.1875 -0.984375 C 6.539062 -0.234375 5.597656 0.140625 4.359375 0.140625 Z M 4.359375 -2.6875 C 4.628906 -2.6875 4.8125 -2.804688 4.90625 -3.046875 C 5 -3.285156 5.046875 -3.617188 5.046875 -4.046875 L 5.046875 -11.578125 C 5.046875 -11.910156 5 -12.179688 4.90625 -12.390625 C 4.820312 -12.597656 4.644531 -12.703125 4.375 -12.703125 C 3.863281 -12.703125 3.609375 -12.316406 3.609375 -11.546875 L 3.609375 -4.03125 C 3.609375 -3.59375 3.660156 -3.257812 3.765625 -3.03125 C 3.867188 -2.800781 4.066406 -2.6875 4.359375 -2.6875 Z M 4.359375 -2.6875 "></path></g></g></g><g fill="#f4d608" fill-opacity="1"><g transform="translate(51.022837, 20.658712)"><g><path d="M 0.6875 0 L 0.6875 -15.390625 L 3.859375 -15.390625 L 5.265625 -8.03125 L 5.265625 -15.390625 L 8.25 -15.390625 L 8.25 0 L 5.234375 0 L 3.6875 -7.703125 L 3.6875 0 Z M 0.6875 0 "></path></g></g></g></g></g><g transform="matrix(1, 0, 0, 1, 288, 144)"><g clip-path="url(#02e80de12c)"><g fill="#f4d608" fill-opacity="1"><g transform="translate(0.420903, 20.93927)"><g><path d="M 0.6875 -15.390625 L 4.859375 -15.390625 C 5.984375 -15.390625 6.796875 -15.113281 7.296875 -14.5625 C 7.804688 -14.019531 8.0625 -13.125 8.0625 -11.875 L 8.0625 -11.203125 C 8.0625 -9.734375 7.535156 -8.851562 6.484375 -8.5625 C 7.128906 -8.394531 7.582031 -8.003906 7.84375 -7.390625 C 8.113281 -6.785156 8.25 -5.984375 8.25 -4.984375 C 8.25 -3.347656 8.003906 -2.109375 7.515625 -1.265625 C 7.023438 -0.421875 6.140625 0 4.859375 0 L 0.6875 0 Z M 4.3125 -9.609375 C 4.582031 -9.609375 4.765625 -9.707031 4.859375 -9.90625 C 4.953125 -10.101562 5 -10.378906 5 -10.734375 L 5 -12.28125 C 5 -12.78125 4.78125 -13.03125 4.34375 -13.03125 L 3.6875 -13.03125 L 3.6875 -9.609375 Z M 4 -2.703125 C 4.800781 -2.703125 5.203125 -3.085938 5.203125 -3.859375 L 5.203125 -5.765625 C 5.203125 -6.234375 5.128906 -6.585938 4.984375 -6.828125 C 4.847656 -7.066406 4.609375 -7.1875 4.265625 -7.1875 L 3.6875 -7.1875 L 3.6875 -2.71875 Z M 4 -2.703125 "></path></g></g></g><g fill="#f4d608" fill-opacity="1"><g transform="translate(9.004304, 20.93927)"><g><path d="M 4.25 0.140625 C 2.976562 0.140625 2.035156 -0.210938 1.421875 -0.921875 C 0.804688 -1.640625 0.5 -2.707031 0.5 -4.125 L 0.5 -15.390625 L 3.5 -15.390625 L 3.5 -4.25 C 3.5 -3.757812 3.546875 -3.375 3.640625 -3.09375 C 3.734375 -2.820312 3.9375 -2.6875 4.25 -2.6875 C 4.5625 -2.6875 4.765625 -2.820312 4.859375 -3.09375 C 4.953125 -3.363281 5 -3.75 5 -4.25 L 5 -15.390625 L 8 -15.390625 L 8 -4.125 C 8 -2.707031 7.6875 -1.640625 7.0625 -0.921875 C 6.445312 -0.210938 5.507812 0.140625 4.25 0.140625 Z M 4.25 0.140625 "></path></g></g></g><g fill="#f4d608" fill-opacity="1"><g transform="translate(17.498111, 20.93927)"><g><path d="M 0.6875 -15.390625 L 5.40625 -15.390625 C 6.164062 -15.390625 6.75 -15.21875 7.15625 -14.875 C 7.570312 -14.539062 7.847656 -14.066406 7.984375 -13.453125 C 8.128906 -12.835938 8.203125 -12.050781 8.203125 -11.09375 C 8.203125 -10.21875 8.085938 -9.535156 7.859375 -9.046875 C 7.640625 -8.554688 7.25 -8.21875 6.6875 -8.03125 C 7.15625 -7.9375 7.492188 -7.703125 7.703125 -7.328125 C 7.910156 -6.960938 8.015625 -6.460938 8.015625 -5.828125 L 7.96875 0 L 4.96875 0 L 4.96875 -6.015625 C 4.96875 -6.453125 4.882812 -6.726562 4.71875 -6.84375 C 4.550781 -6.96875 4.242188 -7.03125 3.796875 -7.03125 L 3.796875 0 L 0.6875 0 Z M 4.546875 -9.703125 C 4.984375 -9.703125 5.203125 -10.164062 5.203125 -11.09375 C 5.203125 -11.5 5.179688 -11.800781 5.140625 -12 C 5.109375 -12.207031 5.039062 -12.347656 4.9375 -12.421875 C 4.84375 -12.503906 4.707031 -12.546875 4.53125 -12.546875 L 3.8125 -12.546875 L 3.8125 -9.703125 Z M 4.546875 -9.703125 "></path></g></g></g><g fill="#f4d608" fill-opacity="1"><g transform="translate(26.045673, 20.93927)"><g><path d="M 0.6875 0 L 0.6875 -15.390625 L 3.859375 -15.390625 L 5.265625 -8.03125 L 5.265625 -15.390625 L 8.25 -15.390625 L 8.25 0 L 5.234375 0 L 3.6875 -7.703125 L 3.6875 0 Z M 0.6875 0 "></path></g></g></g><g fill="#f4d608" fill-opacity="1"><g transform="translate(34.969542, 20.93927)"><g><path d="M 2 0 L 2 -12.4375 L 0.171875 -12.4375 L 0.171875 -15.390625 L 6.921875 -15.390625 L 6.921875 -12.4375 L 5.09375 -12.4375 L 5.09375 0 Z M 2 0 "></path></g></g></g></g></g><g transform="matrix(1, 0, 0, 1, 285, 189)"><g clip-path="url(#7792fe291d)"><g fill="#f4d608" fill-opacity="1"><g transform="translate(1.100247, 21.471299)"><g><path d="M 0.6875 0 L 0.6875 -15.390625 L 3.859375 -15.390625 L 5.265625 -8.03125 L 5.265625 -15.390625 L 8.25 -15.390625 L 8.25 0 L 5.234375 0 L 3.6875 -7.703125 L 3.6875 0 Z M 0.6875 0 "></path></g></g></g><g fill="#f4d608" fill-opacity="1"><g transform="translate(10.024117, 21.471299)"><g><path d="M 4.359375 0.140625 C 3.109375 0.140625 2.160156 -0.234375 1.515625 -0.984375 C 0.878906 -1.742188 0.5625 -2.8125 0.5625 -4.1875 L 0.5625 -11.53125 C 0.5625 -12.851562 0.878906 -13.847656 1.515625 -14.515625 C 2.160156 -15.191406 3.109375 -15.53125 4.359375 -15.53125 C 5.597656 -15.53125 6.539062 -15.191406 7.1875 -14.515625 C 7.832031 -13.847656 8.15625 -12.851562 8.15625 -11.53125 L 8.15625 -4.1875 C 8.15625 -2.800781 7.832031 -1.734375 7.1875 -0.984375 C 6.539062 -0.234375 5.597656 0.140625 4.359375 0.140625 Z M 4.359375 -2.6875 C 4.628906 -2.6875 4.8125 -2.804688 4.90625 -3.046875 C 5 -3.285156 5.046875 -3.617188 5.046875 -4.046875 L 5.046875 -11.578125 C 5.046875 -11.910156 5 -12.179688 4.90625 -12.390625 C 4.820312 -12.597656 4.644531 -12.703125 4.375 -12.703125 C 3.863281 -12.703125 3.609375 -12.316406 3.609375 -11.546875 L 3.609375 -4.03125 C 3.609375 -3.59375 3.660156 -3.257812 3.765625 -3.03125 C 3.867188 -2.800781 4.066406 -2.6875 4.359375 -2.6875 Z M 4.359375 -2.6875 "></path></g></g></g><g fill="#f4d608" fill-opacity="1"><g transform="translate(18.732953, 21.471299)"><g></g></g></g><g fill="#f4d608" fill-opacity="1"><g transform="translate(22.926096, 21.471299)"><g><path d="M 2 0 L 2 -12.4375 L 0.171875 -12.4375 L 0.171875 -15.390625 L 6.921875 -15.390625 L 6.921875 -12.4375 L 5.09375 -12.4375 L 5.09375 0 Z M 2 0 "></path></g></g></g><g fill="#f4d608" fill-opacity="1"><g transform="translate(30.022187, 21.471299)"><g><path d="M 0.265625 0 L 1.75 -15.390625 L 6.96875 -15.390625 L 8.4375 0 L 5.515625 0 L 5.3125 -2.484375 L 3.4375 -2.484375 L 3.265625 0 Z M 3.671875 -4.953125 L 5.078125 -4.953125 L 4.390625 -12.78125 L 4.25 -12.78125 Z M 3.671875 -4.953125 "></path></g></g></g><g clip-path="url(#2b6cf0e3e2)"><g fill="#f4d608" fill-opacity="1"><g transform="translate(38.713108, 21.471299)"><g><path d="M 0.234375 0 L 1.875 -8.171875 L 0.578125 -15.40625 L 3.578125 -15.40625 L 4.390625 -10.109375 L 5.09375 -15.40625 L 8.125 -15.40625 L 6.796875 -8.171875 L 8.4375 0 L 5.328125 0 L 4.359375 -6.015625 L 3.375 0 Z M 0.234375 0 "></path></g></g></g></g></g></g><g transform="matrix(1, 0, 0, 1, 257, 235)"><g clip-path="url(#9f070ec2e5)"><g fill="#f4d608" fill-opacity="1"><g transform="translate(0.677453, 21.405544)"><g><path d="M 0.6875 -15.390625 L 5.40625 -15.390625 C 6.164062 -15.390625 6.75 -15.21875 7.15625 -14.875 C 7.570312 -14.539062 7.847656 -14.066406 7.984375 -13.453125 C 8.128906 -12.835938 8.203125 -12.050781 8.203125 -11.09375 C 8.203125 -10.21875 8.085938 -9.535156 7.859375 -9.046875 C 7.640625 -8.554688 7.25 -8.21875 6.6875 -8.03125 C 7.15625 -7.9375 7.492188 -7.703125 7.703125 -7.328125 C 7.910156 -6.960938 8.015625 -6.460938 8.015625 -5.828125 L 7.96875 0 L 4.96875 0 L 4.96875 -6.015625 C 4.96875 -6.453125 4.882812 -6.726562 4.71875 -6.84375 C 4.550781 -6.96875 4.242188 -7.03125 3.796875 -7.03125 L 3.796875 0 L 0.6875 0 Z M 4.546875 -9.703125 C 4.984375 -9.703125 5.203125 -10.164062 5.203125 -11.09375 C 5.203125 -11.5 5.179688 -11.800781 5.140625 -12 C 5.109375 -12.207031 5.039062 -12.347656 4.9375 -12.421875 C 4.84375 -12.503906 4.707031 -12.546875 4.53125 -12.546875 L 3.8125 -12.546875 L 3.8125 -9.703125 Z M 4.546875 -9.703125 "></path></g></g></g><g fill="#f4d608" fill-opacity="1"><g transform="translate(9.225014, 21.405544)"><g><path d="M 0.6875 0 L 0.6875 -15.390625 L 6.84375 -15.390625 L 6.84375 -12.421875 L 3.8125 -12.421875 L 3.8125 -9.421875 L 6.71875 -9.421875 L 6.71875 -6.53125 L 3.8125 -6.53125 L 3.8125 -3 L 7.046875 -3 L 7.046875 0 Z M 0.6875 0 "></path></g></g></g><g fill="#f4d608" fill-opacity="1"><g transform="translate(16.607813, 21.405544)"><g><path d="M 0.6875 0 L 0.6875 -15.390625 L 3.859375 -15.390625 L 5.265625 -8.03125 L 5.265625 -15.390625 L 8.25 -15.390625 L 8.25 0 L 5.234375 0 L 3.6875 -7.703125 L 3.6875 0 Z M 0.6875 0 "></path></g></g></g><g fill="#f4d608" fill-opacity="1"><g transform="translate(25.531683, 21.405544)"><g><path d="M 4.359375 0.140625 C 3.109375 0.140625 2.160156 -0.234375 1.515625 -0.984375 C 0.878906 -1.742188 0.5625 -2.8125 0.5625 -4.1875 L 0.5625 -11.53125 C 0.5625 -12.851562 0.878906 -13.847656 1.515625 -14.515625 C 2.160156 -15.191406 3.109375 -15.53125 4.359375 -15.53125 C 5.597656 -15.53125 6.539062 -15.191406 7.1875 -14.515625 C 7.832031 -13.847656 8.15625 -12.851562 8.15625 -11.53125 L 8.15625 -4.1875 C 8.15625 -2.800781 7.832031 -1.734375 7.1875 -0.984375 C 6.539062 -0.234375 5.597656 0.140625 4.359375 0.140625 Z M 4.359375 -2.6875 C 4.628906 -2.6875 4.8125 -2.804688 4.90625 -3.046875 C 5 -3.285156 5.046875 -3.617188 5.046875 -4.046875 L 5.046875 -11.578125 C 5.046875 -11.910156 5 -12.179688 4.90625 -12.390625 C 4.820312 -12.597656 4.644531 -12.703125 4.375 -12.703125 C 3.863281 -12.703125 3.609375 -12.316406 3.609375 -11.546875 L 3.609375 -4.03125 C 3.609375 -3.59375 3.660156 -3.257812 3.765625 -3.03125 C 3.867188 -2.800781 4.066406 -2.6875 4.359375 -2.6875 Z M 4.359375 -2.6875 "></path></g></g></g><g fill="#f4d608" fill-opacity="1"><g transform="translate(34.240518, 21.405544)"><g><path d="M 4.25 0.140625 C 2.976562 0.140625 2.035156 -0.210938 1.421875 -0.921875 C 0.804688 -1.640625 0.5 -2.707031 0.5 -4.125 L 0.5 -15.390625 L 3.5 -15.390625 L 3.5 -4.25 C 3.5 -3.757812 3.546875 -3.375 3.640625 -3.09375 C 3.734375 -2.820312 3.9375 -2.6875 4.25 -2.6875 C 4.5625 -2.6875 4.765625 -2.820312 4.859375 -3.09375 C 4.953125 -3.363281 5 -3.75 5 -4.25 L 5 -15.390625 L 8 -15.390625 L 8 -4.125 C 8 -2.707031 7.6875 -1.640625 7.0625 -0.921875 C 6.445312 -0.210938 5.507812 0.140625 4.25 0.140625 Z M 4.25 0.140625 "></path></g></g></g><g fill="#f4d608" fill-opacity="1"><g transform="translate(42.734325, 21.405544)"><g><path d="M 0.6875 0 L 0.6875 -15.390625 L 3.859375 -15.390625 L 5.265625 -8.03125 L 5.265625 -15.390625 L 8.25 -15.390625 L 8.25 0 L 5.234375 0 L 3.6875 -7.703125 L 3.6875 0 Z M 0.6875 0 "></path></g></g></g><g fill="#f4d608" fill-opacity="1"><g transform="translate(51.658195, 21.405544)"><g><path d="M 4.265625 0.140625 C 3.140625 0.140625 2.238281 -0.207031 1.5625 -0.90625 C 0.894531 -1.613281 0.5625 -2.582031 0.5625 -3.8125 L 0.5625 -10.921875 C 0.5625 -12.441406 0.863281 -13.585938 1.46875 -14.359375 C 2.082031 -15.140625 3.039062 -15.53125 4.34375 -15.53125 C 5.476562 -15.53125 6.390625 -15.21875 7.078125 -14.59375 C 7.773438 -13.976562 8.125 -13.085938 8.125 -11.921875 L 8.125 -9.265625 L 5.046875 -9.265625 L 5.046875 -11.546875 C 5.046875 -11.984375 4.992188 -12.285156 4.890625 -12.453125 C 4.785156 -12.617188 4.601562 -12.703125 4.34375 -12.703125 C 4.0625 -12.703125 3.867188 -12.609375 3.765625 -12.421875 C 3.671875 -12.234375 3.625 -11.953125 3.625 -11.578125 L 3.625 -3.859375 C 3.625 -3.453125 3.679688 -3.15625 3.796875 -2.96875 C 3.921875 -2.78125 4.101562 -2.6875 4.34375 -2.6875 C 4.8125 -2.6875 5.046875 -3.078125 5.046875 -3.859375 L 5.046875 -6.625 L 8.15625 -6.625 L 8.15625 -3.734375 C 8.15625 -1.148438 6.859375 0.140625 4.265625 0.140625 Z M 4.265625 0.140625 "></path></g></g></g><g fill="#f4d608" fill-opacity="1"><g transform="translate(60.152002, 21.405544)"><g><path d="M 0.6875 0 L 0.6875 -15.390625 L 6.84375 -15.390625 L 6.84375 -12.421875 L 3.8125 -12.421875 L 3.8125 -9.421875 L 6.71875 -9.421875 L 6.71875 -6.53125 L 3.8125 -6.53125 L 3.8125 -3 L 7.046875 -3 L 7.046875 0 Z M 0.6875 0 "></path></g></g></g><g fill="#f4d608" fill-opacity="1"><g transform="translate(67.534801, 21.405544)"><g><path d="M 0.6875 -15.390625 L 4.921875 -15.390625 C 6.023438 -15.390625 6.847656 -15.082031 7.390625 -14.46875 C 7.941406 -13.863281 8.226562 -12.96875 8.25 -11.78125 L 8.28125 -4.5625 C 8.289062 -3.050781 8.023438 -1.910156 7.484375 -1.140625 C 6.953125 -0.378906 6.066406 0 4.828125 0 L 0.6875 0 Z M 4.3125 -2.71875 C 4.875 -2.71875 5.15625 -2.992188 5.15625 -3.546875 L 5.15625 -11.484375 C 5.15625 -11.828125 5.128906 -12.085938 5.078125 -12.265625 C 5.023438 -12.441406 4.925781 -12.554688 4.78125 -12.609375 C 4.632812 -12.671875 4.414062 -12.703125 4.125 -12.703125 L 3.78125 -12.703125 L 3.78125 -2.71875 Z M 4.3125 -2.71875 "></path></g></g></g></g></g><g fill="#ffffff" fill-opacity="1"><g transform="translate(35.572123, 119.78507)"><g><path d="M 2 0 L 2 -12.4375 L 0.171875 -12.4375 L 0.171875 -15.390625 L 6.921875 -15.390625 L 6.921875 -12.4375 L 5.09375 -12.4375 L 5.09375 0 Z M 2 0 "></path></g></g></g><g fill="#ffffff" fill-opacity="1"><g transform="translate(42.662996, 119.78507)"><g><path d="M 4.359375 0.140625 C 3.109375 0.140625 2.160156 -0.234375 1.515625 -0.984375 C 0.878906 -1.742188 0.5625 -2.8125 0.5625 -4.1875 L 0.5625 -11.53125 C 0.5625 -12.851562 0.878906 -13.847656 1.515625 -14.515625 C 2.160156 -15.191406 3.109375 -15.53125 4.359375 -15.53125 C 5.597656 -15.53125 6.539062 -15.191406 7.1875 -14.515625 C 7.832031 -13.847656 8.15625 -12.851562 8.15625 -11.53125 L 8.15625 -4.1875 C 8.15625 -2.800781 7.832031 -1.734375 7.1875 -0.984375 C 6.539062 -0.234375 5.597656 0.140625 4.359375 0.140625 Z M 4.359375 -2.6875 C 4.628906 -2.6875 4.8125 -2.804688 4.90625 -3.046875 C 5 -3.285156 5.046875 -3.617188 5.046875 -4.046875 L 5.046875 -11.578125 C 5.046875 -11.910156 5 -12.179688 4.90625 -12.390625 C 4.820312 -12.597656 4.644531 -12.703125 4.375 -12.703125 C 3.863281 -12.703125 3.609375 -12.316406 3.609375 -11.546875 L 3.609375 -4.03125 C 3.609375 -3.59375 3.660156 -3.257812 3.765625 -3.03125 C 3.867188 -2.800781 4.066406 -2.6875 4.359375 -2.6875 Z M 4.359375 -2.6875 "></path></g></g></g><g fill="#ffffff" fill-opacity="1"><g transform="translate(51.365438, 119.78507)"><g><path d="M 2 0 L 2 -12.4375 L 0.171875 -12.4375 L 0.171875 -15.390625 L 6.921875 -15.390625 L 6.921875 -12.4375 L 5.09375 -12.4375 L 5.09375 0 Z M 2 0 "></path></g></g></g><g fill="#ffffff" fill-opacity="1"><g transform="translate(58.456311, 119.78507)"><g><path d="M 0.265625 0 L 1.75 -15.390625 L 6.96875 -15.390625 L 8.4375 0 L 5.515625 0 L 5.3125 -2.484375 L 3.4375 -2.484375 L 3.265625 0 Z M 3.671875 -4.953125 L 5.078125 -4.953125 L 4.390625 -12.78125 L 4.25 -12.78125 Z M 3.671875 -4.953125 "></path></g></g></g><g fill="#ffffff" fill-opacity="1"><g transform="translate(67.140843, 119.78507)"><g><path d="M 0.6875 0 L 0.6875 -15.390625 L 3.765625 -15.390625 L 3.765625 -2.609375 L 6.9375 -2.609375 L 6.9375 0 Z M 0.6875 0 "></path></g></g></g><g fill="#ffffff" fill-opacity="1"><g transform="translate(74.249626, 119.78507)"><g></g></g></g><g fill="#ffffff" fill-opacity="1"><g transform="translate(78.439685, 119.78507)"><g><path d="M 4.34375 0.140625 C 2.9375 0.140625 1.921875 -0.203125 1.296875 -0.890625 C 0.679688 -1.585938 0.375 -2.707031 0.375 -4.25 L 0.375 -5.75 L 3.40625 -5.75 L 3.40625 -3.828125 C 3.40625 -3.066406 3.648438 -2.6875 4.140625 -2.6875 C 4.410156 -2.6875 4.597656 -2.765625 4.703125 -2.921875 C 4.816406 -3.085938 4.875 -3.363281 4.875 -3.75 C 4.875 -4.25 4.8125 -4.660156 4.6875 -4.984375 C 4.570312 -5.316406 4.421875 -5.59375 4.234375 -5.8125 C 4.046875 -6.03125 3.71875 -6.375 3.25 -6.84375 L 1.921875 -8.171875 C 0.890625 -9.171875 0.375 -10.28125 0.375 -11.5 C 0.375 -12.820312 0.675781 -13.820312 1.28125 -14.5 C 1.882812 -15.1875 2.765625 -15.53125 3.921875 -15.53125 C 5.304688 -15.53125 6.300781 -15.160156 6.90625 -14.421875 C 7.519531 -13.691406 7.828125 -12.546875 7.828125 -10.984375 L 4.703125 -10.984375 L 4.671875 -12.046875 C 4.671875 -12.242188 4.613281 -12.398438 4.5 -12.515625 C 4.394531 -12.640625 4.238281 -12.703125 4.03125 -12.703125 C 3.789062 -12.703125 3.609375 -12.632812 3.484375 -12.5 C 3.367188 -12.375 3.3125 -12.195312 3.3125 -11.96875 C 3.3125 -11.46875 3.597656 -10.945312 4.171875 -10.40625 L 5.96875 -8.6875 C 6.382812 -8.28125 6.726562 -7.894531 7 -7.53125 C 7.28125 -7.164062 7.503906 -6.734375 7.671875 -6.234375 C 7.835938 -5.742188 7.921875 -5.160156 7.921875 -4.484375 C 7.921875 -2.960938 7.640625 -1.8125 7.078125 -1.03125 C 6.523438 -0.25 5.613281 0.140625 4.34375 0.140625 Z M 4.34375 0.140625 "></path></g></g></g><g fill="#ffffff" fill-opacity="1"><g transform="translate(86.694469, 119.78507)"><g><path d="M 4.25 0.140625 C 2.976562 0.140625 2.035156 -0.210938 1.421875 -0.921875 C 0.804688 -1.640625 0.5 -2.707031 0.5 -4.125 L 0.5 -15.390625 L 3.5 -15.390625 L 3.5 -4.25 C 3.5 -3.757812 3.546875 -3.375 3.640625 -3.09375 C 3.734375 -2.820312 3.9375 -2.6875 4.25 -2.6875 C 4.5625 -2.6875 4.765625 -2.820312 4.859375 -3.09375 C 4.953125 -3.363281 5 -3.75 5 -4.25 L 5 -15.390625 L 8 -15.390625 L 8 -4.125 C 8 -2.707031 7.6875 -1.640625 7.0625 -0.921875 C 6.445312 -0.210938 5.507812 0.140625 4.25 0.140625 Z M 4.25 0.140625 "></path></g></g></g><g fill="#ffffff" fill-opacity="1"><g transform="translate(95.182024, 119.78507)"><g><path d="M 0.6875 -15.390625 L 4.75 -15.390625 C 5.976562 -15.390625 6.851562 -14.992188 7.375 -14.203125 C 7.90625 -13.410156 8.171875 -12.25 8.171875 -10.71875 C 8.171875 -9.1875 7.9375 -8.03125 7.46875 -7.25 C 7.007812 -6.476562 6.175781 -6.09375 4.96875 -6.09375 L 3.703125 -6.09375 L 3.703125 0 L 0.6875 0 Z M 3.890625 -8.875 C 4.253906 -8.875 4.523438 -8.941406 4.703125 -9.078125 C 4.878906 -9.210938 4.992188 -9.40625 5.046875 -9.65625 C 5.097656 -9.914062 5.125 -10.285156 5.125 -10.765625 C 5.125 -11.410156 5.050781 -11.875 4.90625 -12.15625 C 4.769531 -12.445312 4.484375 -12.59375 4.046875 -12.59375 L 3.703125 -12.59375 L 3.703125 -8.875 Z M 3.890625 -8.875 "></path></g></g></g><g fill="#ffffff" fill-opacity="1"><g transform="translate(103.633772, 119.78507)"><g><path d="M 0.6875 -15.390625 L 4.75 -15.390625 C 5.976562 -15.390625 6.851562 -14.992188 7.375 -14.203125 C 7.90625 -13.410156 8.171875 -12.25 8.171875 -10.71875 C 8.171875 -9.1875 7.9375 -8.03125 7.46875 -7.25 C 7.007812 -6.476562 6.175781 -6.09375 4.96875 -6.09375 L 3.703125 -6.09375 L 3.703125 0 L 0.6875 0 Z M 3.890625 -8.875 C 4.253906 -8.875 4.523438 -8.941406 4.703125 -9.078125 C 4.878906 -9.210938 4.992188 -9.40625 5.046875 -9.65625 C 5.097656 -9.914062 5.125 -10.285156 5.125 -10.765625 C 5.125 -11.410156 5.050781 -11.875 4.90625 -12.15625 C 4.769531 -12.445312 4.484375 -12.59375 4.046875 -12.59375 L 3.703125 -12.59375 L 3.703125 -8.875 Z M 3.890625 -8.875 "></path></g></g></g><g fill="#ffffff" fill-opacity="1"><g transform="translate(112.085519, 119.78507)"><g><path d="M 0.6875 0 L 0.6875 -15.390625 L 3.765625 -15.390625 L 3.765625 -2.609375 L 6.9375 -2.609375 L 6.9375 0 Z M 0.6875 0 "></path></g></g></g><g fill="#ffffff" fill-opacity="1"><g transform="translate(119.194302, 119.78507)"><g><path d="M 2.546875 0 L 2.546875 -5.078125 L 0.09375 -15.390625 L 3.140625 -15.390625 L 4 -10.171875 L 4.859375 -15.390625 L 7.90625 -15.390625 L 5.453125 -5.078125 L 5.453125 0 Z M 2.546875 0 "></path></g></g></g><g fill="#ffffff" fill-opacity="1"><g transform="translate(37.320634, 165.065615)"><g><path d="M 0.6875 0 L 0.6875 -15.390625 L 3.765625 -15.390625 L 3.765625 -2.609375 L 6.9375 -2.609375 L 6.9375 0 Z M 0.6875 0 "></path></g></g></g><g fill="#ffffff" fill-opacity="1"><g transform="translate(44.429417, 165.065615)"><g><path d="M 0.53125 0 L 0.53125 -15.390625 L 3.515625 -15.390625 L 3.515625 0 Z M 0.53125 0 "></path></g></g></g><g fill="#ffffff" fill-opacity="1"><g transform="translate(48.494141, 165.065615)"><g><path d="M 5.03125 0.015625 C 4.582031 0.0976562 4.328125 0.140625 4.265625 0.140625 C 3.023438 0.140625 2.082031 -0.210938 1.4375 -0.921875 C 0.789062 -1.628906 0.46875 -2.671875 0.46875 -4.046875 L 0.46875 -11.484375 C 0.46875 -12.816406 0.789062 -13.820312 1.4375 -14.5 C 2.09375 -15.1875 3.035156 -15.53125 4.265625 -15.53125 C 5.492188 -15.53125 6.429688 -15.1875 7.078125 -14.5 C 7.734375 -13.820312 8.0625 -12.816406 8.0625 -11.484375 L 8.0625 -4.046875 C 8.0625 -2.785156 7.773438 -1.785156 7.203125 -1.046875 L 8.53125 -0.203125 L 7.484375 1.625 Z M 4.265625 -2.6875 C 4.566406 -2.6875 4.757812 -2.828125 4.84375 -3.109375 C 4.925781 -3.398438 4.96875 -3.773438 4.96875 -4.234375 L 4.96875 -11.4375 C 4.96875 -11.832031 4.914062 -12.140625 4.8125 -12.359375 C 4.707031 -12.585938 4.519531 -12.703125 4.25 -12.703125 C 3.757812 -12.703125 3.515625 -12.285156 3.515625 -11.453125 L 3.515625 -4.171875 C 3.515625 -3.742188 3.5625 -3.390625 3.65625 -3.109375 C 3.75 -2.828125 3.953125 -2.6875 4.265625 -2.6875 Z M 4.265625 -2.6875 "></path></g></g></g><g fill="#ffffff" fill-opacity="1"><g transform="translate(57.339828, 165.065615)"><g><path d="M 4.25 0.140625 C 2.976562 0.140625 2.035156 -0.210938 1.421875 -0.921875 C 0.804688 -1.640625 0.5 -2.707031 0.5 -4.125 L 0.5 -15.390625 L 3.5 -15.390625 L 3.5 -4.25 C 3.5 -3.757812 3.546875 -3.375 3.640625 -3.09375 C 3.734375 -2.820312 3.9375 -2.6875 4.25 -2.6875 C 4.5625 -2.6875 4.765625 -2.820312 4.859375 -3.09375 C 4.953125 -3.363281 5 -3.75 5 -4.25 L 5 -15.390625 L 8 -15.390625 L 8 -4.125 C 8 -2.707031 7.6875 -1.640625 7.0625 -0.921875 C 6.445312 -0.210938 5.507812 0.140625 4.25 0.140625 Z M 4.25 0.140625 "></path></g></g></g><g fill="#ffffff" fill-opacity="1"><g transform="translate(65.827384, 165.065615)"><g><path d="M 0.53125 0 L 0.53125 -15.390625 L 3.515625 -15.390625 L 3.515625 0 Z M 0.53125 0 "></path></g></g></g><g fill="#ffffff" fill-opacity="1"><g transform="translate(69.892108, 165.065615)"><g><path d="M 0.6875 -15.390625 L 4.921875 -15.390625 C 6.023438 -15.390625 6.847656 -15.082031 7.390625 -14.46875 C 7.941406 -13.863281 8.226562 -12.96875 8.25 -11.78125 L 8.28125 -4.5625 C 8.289062 -3.050781 8.023438 -1.910156 7.484375 -1.140625 C 6.953125 -0.378906 6.066406 0 4.828125 0 L 0.6875 0 Z M 4.3125 -2.71875 C 4.875 -2.71875 5.15625 -2.992188 5.15625 -3.546875 L 5.15625 -11.484375 C 5.15625 -11.828125 5.128906 -12.085938 5.078125 -12.265625 C 5.023438 -12.441406 4.925781 -12.554688 4.78125 -12.609375 C 4.632812 -12.671875 4.414062 -12.703125 4.125 -12.703125 L 3.78125 -12.703125 L 3.78125 -2.71875 Z M 4.3125 -2.71875 "></path></g></g></g><g fill="#ffffff" fill-opacity="1"><g transform="translate(78.719885, 165.065615)"><g><path d="M 0.53125 0 L 0.53125 -15.390625 L 3.515625 -15.390625 L 3.515625 0 Z M 0.53125 0 "></path></g></g></g><g fill="#ffffff" fill-opacity="1"><g transform="translate(82.784609, 165.065615)"><g><path d="M 2 0 L 2 -12.4375 L 0.171875 -12.4375 L 0.171875 -15.390625 L 6.921875 -15.390625 L 6.921875 -12.4375 L 5.09375 -12.4375 L 5.09375 0 Z M 2 0 "></path></g></g></g><g fill="#ffffff" fill-opacity="1"><g transform="translate(89.875482, 165.065615)"><g><path d="M 2.546875 0 L 2.546875 -5.078125 L 0.09375 -15.390625 L 3.140625 -15.390625 L 4 -10.171875 L 4.859375 -15.390625 L 7.90625 -15.390625 L 5.453125 -5.078125 L 5.453125 0 Z M 2.546875 0 "></path></g></g></g><g fill="#ffffff" fill-opacity="1"><g transform="translate(97.861672, 165.065615)"><g></g></g></g><g fill="#ffffff" fill-opacity="1"><g transform="translate(102.051732, 165.065615)"><g><path d="M 0.6875 -15.390625 L 4.75 -15.390625 C 5.976562 -15.390625 6.851562 -14.992188 7.375 -14.203125 C 7.90625 -13.410156 8.171875 -12.25 8.171875 -10.71875 C 8.171875 -9.1875 7.9375 -8.03125 7.46875 -7.25 C 7.007812 -6.476562 6.175781 -6.09375 4.96875 -6.09375 L 3.703125 -6.09375 L 3.703125 0 L 0.6875 0 Z M 3.890625 -8.875 C 4.253906 -8.875 4.523438 -8.941406 4.703125 -9.078125 C 4.878906 -9.210938 4.992188 -9.40625 5.046875 -9.65625 C 5.097656 -9.914062 5.125 -10.285156 5.125 -10.765625 C 5.125 -11.410156 5.050781 -11.875 4.90625 -12.15625 C 4.769531 -12.445312 4.484375 -12.59375 4.046875 -12.59375 L 3.703125 -12.59375 L 3.703125 -8.875 Z M 3.890625 -8.875 "></path></g></g></g><g fill="#ffffff" fill-opacity="1"><g transform="translate(110.503479, 165.065615)"><g><path d="M 4.359375 0.140625 C 3.109375 0.140625 2.160156 -0.234375 1.515625 -0.984375 C 0.878906 -1.742188 0.5625 -2.8125 0.5625 -4.1875 L 0.5625 -11.53125 C 0.5625 -12.851562 0.878906 -13.847656 1.515625 -14.515625 C 2.160156 -15.191406 3.109375 -15.53125 4.359375 -15.53125 C 5.597656 -15.53125 6.539062 -15.191406 7.1875 -14.515625 C 7.832031 -13.847656 8.15625 -12.851562 8.15625 -11.53125 L 8.15625 -4.1875 C 8.15625 -2.800781 7.832031 -1.734375 7.1875 -0.984375 C 6.539062 -0.234375 5.597656 0.140625 4.359375 0.140625 Z M 4.359375 -2.6875 C 4.628906 -2.6875 4.8125 -2.804688 4.90625 -3.046875 C 5 -3.285156 5.046875 -3.617188 5.046875 -4.046875 L 5.046875 -11.578125 C 5.046875 -11.910156 5 -12.179688 4.90625 -12.390625 C 4.820312 -12.597656 4.644531 -12.703125 4.375 -12.703125 C 3.863281 -12.703125 3.609375 -12.316406 3.609375 -11.546875 L 3.609375 -4.03125 C 3.609375 -3.59375 3.660156 -3.257812 3.765625 -3.03125 C 3.867188 -2.800781 4.066406 -2.6875 4.359375 -2.6875 Z M 4.359375 -2.6875 "></path></g></g></g><g fill="#ffffff" fill-opacity="1"><g transform="translate(119.205921, 165.065615)"><g><path d="M 4.359375 0.140625 C 3.109375 0.140625 2.160156 -0.234375 1.515625 -0.984375 C 0.878906 -1.742188 0.5625 -2.8125 0.5625 -4.1875 L 0.5625 -11.53125 C 0.5625 -12.851562 0.878906 -13.847656 1.515625 -14.515625 C 2.160156 -15.191406 3.109375 -15.53125 4.359375 -15.53125 C 5.597656 -15.53125 6.539062 -15.191406 7.1875 -14.515625 C 7.832031 -13.847656 8.15625 -12.851562 8.15625 -11.53125 L 8.15625 -4.1875 C 8.15625 -2.800781 7.832031 -1.734375 7.1875 -0.984375 C 6.539062 -0.234375 5.597656 0.140625 4.359375 0.140625 Z M 4.359375 -2.6875 C 4.628906 -2.6875 4.8125 -2.804688 4.90625 -3.046875 C 5 -3.285156 5.046875 -3.617188 5.046875 -4.046875 L 5.046875 -11.578125 C 5.046875 -11.910156 5 -12.179688 4.90625 -12.390625 C 4.820312 -12.597656 4.644531 -12.703125 4.375 -12.703125 C 3.863281 -12.703125 3.609375 -12.316406 3.609375 -11.546875 L 3.609375 -4.03125 C 3.609375 -3.59375 3.660156 -3.257812 3.765625 -3.03125 C 3.867188 -2.800781 4.066406 -2.6875 4.359375 -2.6875 Z M 4.359375 -2.6875 "></path></g></g></g><g fill="#ffffff" fill-opacity="1"><g transform="translate(127.908362, 165.065615)"><g><path d="M 0.6875 0 L 0.6875 -15.390625 L 3.765625 -15.390625 L 3.765625 -2.609375 L 6.9375 -2.609375 L 6.9375 0 Z M 0.6875 0 "></path></g></g></g><g fill="#ffffff" fill-opacity="1"><g transform="translate(37.641114, 211.067785)"><g><path d="M 0.6875 -15.390625 L 4.859375 -15.390625 C 5.984375 -15.390625 6.796875 -15.113281 7.296875 -14.5625 C 7.804688 -14.019531 8.0625 -13.125 8.0625 -11.875 L 8.0625 -11.203125 C 8.0625 -9.734375 7.535156 -8.851562 6.484375 -8.5625 C 7.128906 -8.394531 7.582031 -8.003906 7.84375 -7.390625 C 8.113281 -6.785156 8.25 -5.984375 8.25 -4.984375 C 8.25 -3.347656 8.003906 -2.109375 7.515625 -1.265625 C 7.023438 -0.421875 6.140625 0 4.859375 0 L 0.6875 0 Z M 4.3125 -9.609375 C 4.582031 -9.609375 4.765625 -9.707031 4.859375 -9.90625 C 4.953125 -10.101562 5 -10.378906 5 -10.734375 L 5 -12.28125 C 5 -12.78125 4.78125 -13.03125 4.34375 -13.03125 L 3.6875 -13.03125 L 3.6875 -9.609375 Z M 4 -2.703125 C 4.800781 -2.703125 5.203125 -3.085938 5.203125 -3.859375 L 5.203125 -5.765625 C 5.203125 -6.234375 5.128906 -6.585938 4.984375 -6.828125 C 4.847656 -7.066406 4.609375 -7.1875 4.265625 -7.1875 L 3.6875 -7.1875 L 3.6875 -2.71875 Z M 4 -2.703125 "></path></g></g></g><g fill="#ffffff" fill-opacity="1"><g transform="translate(46.218209, 211.067785)"><g><path d="M 4.25 0.140625 C 2.976562 0.140625 2.035156 -0.210938 1.421875 -0.921875 C 0.804688 -1.640625 0.5 -2.707031 0.5 -4.125 L 0.5 -15.390625 L 3.5 -15.390625 L 3.5 -4.25 C 3.5 -3.757812 3.546875 -3.375 3.640625 -3.09375 C 3.734375 -2.820312 3.9375 -2.6875 4.25 -2.6875 C 4.5625 -2.6875 4.765625 -2.820312 4.859375 -3.09375 C 4.953125 -3.363281 5 -3.75 5 -4.25 L 5 -15.390625 L 8 -15.390625 L 8 -4.125 C 8 -2.707031 7.6875 -1.640625 7.0625 -0.921875 C 6.445312 -0.210938 5.507812 0.140625 4.25 0.140625 Z M 4.25 0.140625 "></path></g></g></g><g fill="#ffffff" fill-opacity="1"><g transform="translate(54.705764, 211.067785)"><g><path d="M 2.546875 0 L 2.546875 -5.078125 L 0.09375 -15.390625 L 3.140625 -15.390625 L 4 -10.171875 L 4.859375 -15.390625 L 7.90625 -15.390625 L 5.453125 -5.078125 L 5.453125 0 Z M 2.546875 0 "></path></g></g></g><g fill="#ffffff" fill-opacity="1"><g transform="translate(62.691955, 211.067785)"><g><path d="M 0.25 0 L 3.828125 -15.46875 L 7.03125 -15.46875 L 3.421875 0 Z M 0.25 0 "></path></g></g></g><g fill="#ffffff" fill-opacity="1"><g transform="translate(69.943984, 211.067785)"><g><path d="M 4.34375 0.140625 C 2.9375 0.140625 1.921875 -0.203125 1.296875 -0.890625 C 0.679688 -1.585938 0.375 -2.707031 0.375 -4.25 L 0.375 -5.75 L 3.40625 -5.75 L 3.40625 -3.828125 C 3.40625 -3.066406 3.648438 -2.6875 4.140625 -2.6875 C 4.410156 -2.6875 4.597656 -2.765625 4.703125 -2.921875 C 4.816406 -3.085938 4.875 -3.363281 4.875 -3.75 C 4.875 -4.25 4.8125 -4.660156 4.6875 -4.984375 C 4.570312 -5.316406 4.421875 -5.59375 4.234375 -5.8125 C 4.046875 -6.03125 3.71875 -6.375 3.25 -6.84375 L 1.921875 -8.171875 C 0.890625 -9.171875 0.375 -10.28125 0.375 -11.5 C 0.375 -12.820312 0.675781 -13.820312 1.28125 -14.5 C 1.882812 -15.1875 2.765625 -15.53125 3.921875 -15.53125 C 5.304688 -15.53125 6.300781 -15.160156 6.90625 -14.421875 C 7.519531 -13.691406 7.828125 -12.546875 7.828125 -10.984375 L 4.703125 -10.984375 L 4.671875 -12.046875 C 4.671875 -12.242188 4.613281 -12.398438 4.5 -12.515625 C 4.394531 -12.640625 4.238281 -12.703125 4.03125 -12.703125 C 3.789062 -12.703125 3.609375 -12.632812 3.484375 -12.5 C 3.367188 -12.375 3.3125 -12.195312 3.3125 -11.96875 C 3.3125 -11.46875 3.597656 -10.945312 4.171875 -10.40625 L 5.96875 -8.6875 C 6.382812 -8.28125 6.726562 -7.894531 7 -7.53125 C 7.28125 -7.164062 7.503906 -6.734375 7.671875 -6.234375 C 7.835938 -5.742188 7.921875 -5.160156 7.921875 -4.484375 C 7.921875 -2.960938 7.640625 -1.8125 7.078125 -1.03125 C 6.523438 -0.25 5.613281 0.140625 4.34375 0.140625 Z M 4.34375 0.140625 "></path></g></g></g><g fill="#ffffff" fill-opacity="1"><g transform="translate(78.198767, 211.067785)"><g><path d="M 0.6875 0 L 0.6875 -15.390625 L 6.84375 -15.390625 L 6.84375 -12.421875 L 3.8125 -12.421875 L 3.8125 -9.421875 L 6.71875 -9.421875 L 6.71875 -6.53125 L 3.8125 -6.53125 L 3.8125 -3 L 7.046875 -3 L 7.046875 0 Z M 0.6875 0 "></path></g></g></g><g fill="#ffffff" fill-opacity="1"><g transform="translate(85.576143, 211.067785)"><g><path d="M 0.6875 0 L 0.6875 -15.390625 L 3.765625 -15.390625 L 3.765625 -2.609375 L 6.9375 -2.609375 L 6.9375 0 Z M 0.6875 0 "></path></g></g></g><g fill="#ffffff" fill-opacity="1"><g transform="translate(92.684926, 211.067785)"><g><path d="M 0.6875 0 L 0.6875 -15.390625 L 3.765625 -15.390625 L 3.765625 -2.609375 L 6.9375 -2.609375 L 6.9375 0 Z M 0.6875 0 "></path></g></g></g><g fill="#ffffff" fill-opacity="1"><g transform="translate(99.793709, 211.067785)"><g></g></g></g><g fill="#ffffff" fill-opacity="1"><g transform="translate(103.983769, 211.067785)"><g><path d="M 2 0 L 2 -12.4375 L 0.171875 -12.4375 L 0.171875 -15.390625 L 6.921875 -15.390625 L 6.921875 -12.4375 L 5.09375 -12.4375 L 5.09375 0 Z M 2 0 "></path></g></g></g><g fill="#ffffff" fill-opacity="1"><g transform="translate(111.074642, 211.067785)"><g><path d="M 0.265625 0 L 1.75 -15.390625 L 6.96875 -15.390625 L 8.4375 0 L 5.515625 0 L 5.3125 -2.484375 L 3.4375 -2.484375 L 3.265625 0 Z M 3.671875 -4.953125 L 5.078125 -4.953125 L 4.390625 -12.78125 L 4.25 -12.78125 Z M 3.671875 -4.953125 "></path></g></g></g><g fill="#ffffff" fill-opacity="1"><g transform="translate(119.759174, 211.067785)"><g><path d="M 0.234375 0 L 1.875 -8.171875 L 0.578125 -15.40625 L 3.578125 -15.40625 L 4.390625 -10.109375 L 5.09375 -15.40625 L 8.125 -15.40625 L 6.796875 -8.171875 L 8.4375 0 L 5.328125 0 L 4.359375 -6.015625 L 3.375 0 Z M 0.234375 0 "></path></g></g></g><g fill="#ffffff" fill-opacity="1"><g transform="translate(37.928043, 256.76405)"><g><path d="M 4.359375 0.140625 C 3.109375 0.140625 2.160156 -0.234375 1.515625 -0.984375 C 0.878906 -1.742188 0.5625 -2.8125 0.5625 -4.1875 L 0.5625 -11.53125 C 0.5625 -12.851562 0.878906 -13.847656 1.515625 -14.515625 C 2.160156 -15.191406 3.109375 -15.53125 4.359375 -15.53125 C 5.597656 -15.53125 6.539062 -15.191406 7.1875 -14.515625 C 7.832031 -13.847656 8.15625 -12.851562 8.15625 -11.53125 L 8.15625 -4.1875 C 8.15625 -2.800781 7.832031 -1.734375 7.1875 -0.984375 C 6.539062 -0.234375 5.597656 0.140625 4.359375 0.140625 Z M 4.359375 -2.6875 C 4.628906 -2.6875 4.8125 -2.804688 4.90625 -3.046875 C 5 -3.285156 5.046875 -3.617188 5.046875 -4.046875 L 5.046875 -11.578125 C 5.046875 -11.910156 5 -12.179688 4.90625 -12.390625 C 4.820312 -12.597656 4.644531 -12.703125 4.375 -12.703125 C 3.863281 -12.703125 3.609375 -12.316406 3.609375 -11.546875 L 3.609375 -4.03125 C 3.609375 -3.59375 3.660156 -3.257812 3.765625 -3.03125 C 3.867188 -2.800781 4.066406 -2.6875 4.359375 -2.6875 Z M 4.359375 -2.6875 "></path></g></g></g><g fill="#ffffff" fill-opacity="1"><g transform="translate(46.630485, 256.76405)"><g><path d="M 1.875 0 L 0.234375 -15.390625 L 3.25 -15.390625 L 4.109375 -5.6875 L 4.96875 -15.390625 L 7.828125 -15.390625 L 8.65625 -5.6875 L 9.484375 -15.390625 L 12.53125 -15.390625 L 10.84375 0 L 7.15625 0 L 6.375 -7.421875 L 5.640625 0 Z M 1.875 0 "></path></g></g></g><g fill="#ffffff" fill-opacity="1"><g transform="translate(59.379728, 256.76405)"><g><path d="M 0.6875 0 L 0.6875 -15.390625 L 3.859375 -15.390625 L 5.265625 -8.03125 L 5.265625 -15.390625 L 8.25 -15.390625 L 8.25 0 L 5.234375 0 L 3.6875 -7.703125 L 3.6875 0 Z M 0.6875 0 "></path></g></g></g><g fill="#ffffff" fill-opacity="1"><g transform="translate(68.297044, 256.76405)"><g><path d="M 0.6875 0 L 0.6875 -15.390625 L 6.84375 -15.390625 L 6.84375 -12.421875 L 3.8125 -12.421875 L 3.8125 -9.421875 L 6.71875 -9.421875 L 6.71875 -6.53125 L 3.8125 -6.53125 L 3.8125 -3 L 7.046875 -3 L 7.046875 0 Z M 0.6875 0 "></path></g></g></g><g fill="#ffffff" fill-opacity="1"><g transform="translate(75.67442, 256.76405)"><g><path d="M 0.6875 -15.390625 L 5.40625 -15.390625 C 6.164062 -15.390625 6.75 -15.21875 7.15625 -14.875 C 7.570312 -14.539062 7.847656 -14.066406 7.984375 -13.453125 C 8.128906 -12.835938 8.203125 -12.050781 8.203125 -11.09375 C 8.203125 -10.21875 8.085938 -9.535156 7.859375 -9.046875 C 7.640625 -8.554688 7.25 -8.21875 6.6875 -8.03125 C 7.15625 -7.9375 7.492188 -7.703125 7.703125 -7.328125 C 7.910156 -6.960938 8.015625 -6.460938 8.015625 -5.828125 L 7.96875 0 L 4.96875 0 L 4.96875 -6.015625 C 4.96875 -6.453125 4.882812 -6.726562 4.71875 -6.84375 C 4.550781 -6.96875 4.242188 -7.03125 3.796875 -7.03125 L 3.796875 0 L 0.6875 0 Z M 4.546875 -9.703125 C 4.984375 -9.703125 5.203125 -10.164062 5.203125 -11.09375 C 5.203125 -11.5 5.179688 -11.800781 5.140625 -12 C 5.109375 -12.207031 5.039062 -12.347656 4.9375 -12.421875 C 4.84375 -12.503906 4.707031 -12.546875 4.53125 -12.546875 L 3.8125 -12.546875 L 3.8125 -9.703125 Z M 4.546875 -9.703125 "></path></g></g></g><g fill="#ffffff" fill-opacity="1"><g transform="translate(84.215695, 256.76405)"><g><path d="M 4.34375 0.140625 C 2.9375 0.140625 1.921875 -0.203125 1.296875 -0.890625 C 0.679688 -1.585938 0.375 -2.707031 0.375 -4.25 L 0.375 -5.75 L 3.40625 -5.75 L 3.40625 -3.828125 C 3.40625 -3.066406 3.648438 -2.6875 4.140625 -2.6875 C 4.410156 -2.6875 4.597656 -2.765625 4.703125 -2.921875 C 4.816406 -3.085938 4.875 -3.363281 4.875 -3.75 C 4.875 -4.25 4.8125 -4.660156 4.6875 -4.984375 C 4.570312 -5.316406 4.421875 -5.59375 4.234375 -5.8125 C 4.046875 -6.03125 3.71875 -6.375 3.25 -6.84375 L 1.921875 -8.171875 C 0.890625 -9.171875 0.375 -10.28125 0.375 -11.5 C 0.375 -12.820312 0.675781 -13.820312 1.28125 -14.5 C 1.882812 -15.1875 2.765625 -15.53125 3.921875 -15.53125 C 5.304688 -15.53125 6.300781 -15.160156 6.90625 -14.421875 C 7.519531 -13.691406 7.828125 -12.546875 7.828125 -10.984375 L 4.703125 -10.984375 L 4.671875 -12.046875 C 4.671875 -12.242188 4.613281 -12.398438 4.5 -12.515625 C 4.394531 -12.640625 4.238281 -12.703125 4.03125 -12.703125 C 3.789062 -12.703125 3.609375 -12.632812 3.484375 -12.5 C 3.367188 -12.375 3.3125 -12.195312 3.3125 -11.96875 C 3.3125 -11.46875 3.597656 -10.945312 4.171875 -10.40625 L 5.96875 -8.6875 C 6.382812 -8.28125 6.726562 -7.894531 7 -7.53125 C 7.28125 -7.164062 7.503906 -6.734375 7.671875 -6.234375 C 7.835938 -5.742188 7.921875 -5.160156 7.921875 -4.484375 C 7.921875 -2.960938 7.640625 -1.8125 7.078125 -1.03125 C 6.523438 -0.25 5.613281 0.140625 4.34375 0.140625 Z M 4.34375 0.140625 "></path></g></g></g><g fill="#ffffff" fill-opacity="1"><g transform="translate(92.470478, 256.76405)"><g><path d="M 0.6875 0 L 0.6875 -15.390625 L 3.75 -15.390625 L 3.75 -9.890625 L 5.203125 -9.890625 L 5.203125 -15.390625 L 8.265625 -15.390625 L 8.265625 0 L 5.203125 0 L 5.203125 -6.984375 L 3.75 -6.984375 L 3.75 0 Z M 0.6875 0 "></path></g></g></g><g fill="#ffffff" fill-opacity="1"><g transform="translate(101.405692, 256.76405)"><g><path d="M 0.53125 0 L 0.53125 -15.390625 L 3.515625 -15.390625 L 3.515625 0 Z M 0.53125 0 "></path></g></g></g><g fill="#ffffff" fill-opacity="1"><g transform="translate(105.470416, 256.76405)"><g><path d="M 0.6875 -15.390625 L 4.75 -15.390625 C 5.976562 -15.390625 6.851562 -14.992188 7.375 -14.203125 C 7.90625 -13.410156 8.171875 -12.25 8.171875 -10.71875 C 8.171875 -9.1875 7.9375 -8.03125 7.46875 -7.25 C 7.007812 -6.476562 6.175781 -6.09375 4.96875 -6.09375 L 3.703125 -6.09375 L 3.703125 0 L 0.6875 0 Z M 3.890625 -8.875 C 4.253906 -8.875 4.523438 -8.941406 4.703125 -9.078125 C 4.878906 -9.210938 4.992188 -9.40625 5.046875 -9.65625 C 5.097656 -9.914062 5.125 -10.285156 5.125 -10.765625 C 5.125 -11.410156 5.050781 -11.875 4.90625 -12.15625 C 4.769531 -12.445312 4.484375 -12.59375 4.046875 -12.59375 L 3.703125 -12.59375 L 3.703125 -8.875 Z M 3.890625 -8.875 "></path></g></g></g></svg> 